# Blender v3.1.2 OBJ File: 'icon.blend'
# www.blender.org
mtllib folder.mtl
o folder_Cube.009
v 0.102353 -1.426293 -0.444282
v 0.102353 1.285194 -0.444282
v 0.102353 -1.426293 -0.033806
v 0.102353 1.285194 0.204868
v -4.163802 -1.426293 -0.444281
v -4.163802 1.285194 -0.444281
v -4.163802 -1.426293 -0.033804
v -4.163802 1.285194 0.204869
v 0.102353 -1.426293 -0.230296
v 0.102353 1.285194 -0.230296
v -4.163802 -1.426293 -0.230295
v -4.163802 1.285194 -0.230295
v -2.840811 -1.426293 -0.033805
v -2.840811 1.285194 0.204869
v -2.840811 -1.426293 -0.444281
v -2.840811 1.285194 -0.444281
v -2.840811 1.285194 -0.230295
v -2.840811 -1.426293 -0.230295
v -4.052467 1.927728 -0.230295
v -4.052467 1.927728 -0.444281
v -2.950941 1.927728 -0.230295
v -2.950941 1.927728 -0.444281
v 0.102353 1.285194 0.084660
v -4.163802 -1.426293 -0.147314
v 0.102353 -1.426293 -0.147315
v -4.163802 1.285194 0.084661
v -2.840811 -1.426293 -0.147314
v -2.840811 1.285194 0.084661
v 0.102353 -0.048891 -0.444282
v 0.102353 -0.048891 -0.033806
v -4.163802 -0.048891 -0.033804
v -4.163802 -0.048891 -0.444281
v -4.163802 -0.048891 -0.230295
v 0.102353 -0.048891 -0.230296
v -2.840811 -0.048891 -0.444281
v -2.840811 -0.048891 -0.033805
v -4.163802 -0.048891 -0.147314
v 0.102353 -0.048891 -0.147315
v -2.840811 -0.048891 -0.230295
v -2.840811 -0.048891 -0.147314
vt 0.695768 0.721381
vt 0.706456 0.911167
vt 0.690019 0.914988
vt 0.680247 0.724989
vt 0.294032 0.752810
vt 0.283372 0.926309
vt 0.102153 0.911509
vt 0.121792 0.721499
vt 0.105319 0.710956
vt 0.089122 0.837822
vt 0.071231 0.826361
vt 0.087429 0.699495
vt 0.287063 0.418421
vt 0.276039 0.281161
vt 0.583724 0.263992
vt 0.591507 0.403461
vt 0.299995 0.572476
vt 0.179092 0.595798
vt 0.175026 0.575592
vt 0.298115 0.551909
vt 0.288340 0.258652
vt 0.582476 0.241622
vt 0.300687 0.580393
vt 0.184019 0.602744
vt 0.724759 0.691442
vt 0.737428 0.849041
vt 0.716073 0.865306
vt 0.703404 0.707706
vt 0.593813 0.579189
vt 0.598713 0.570248
vt 0.122652 0.171712
vt 0.238417 0.140027
vt 0.244169 0.198887
vt 0.147783 0.225269
vt 0.598390 0.548248
vt 0.152378 0.434052
vt 0.137815 0.294605
vt 0.233522 0.224515
vt 0.160082 0.240246
vt 0.114857 0.283171
vt 0.285291 0.256036
vt 0.282919 0.942889
vt 0.100798 0.928044
vt 0.587494 0.590892
vt 0.301898 0.592755
vt 0.085870 0.906826
vt 0.106416 0.717077
vt 0.190508 0.611596
vt 0.690479 0.931634
vt 0.695133 0.713994
vt 0.112257 0.715401
vt 0.620067 0.553983
vt 0.161202 0.584336
vt 0.968305 0.507728
vt 0.819700 0.507728
vt 0.819700 0.360359
vt 0.968305 0.360359
vt 0.810456 0.360359
vt 0.659621 0.360359
vt 0.659621 0.032516
vt 0.810456 0.032516
vt 0.810456 0.507728
vt 0.819700 0.032516
vt 0.659621 0.507728
vt 0.968305 0.032516
vn 1.0000 0.0000 0.0000
vn 0.0000 -0.1761 0.9844
vn -1.0000 0.0000 0.0000
vn -0.0000 0.0000 -1.0000
vn 0.0000 -1.0000 0.0000
vn 0.0000 1.0000 -0.0000
vn 0.0000 0.0000 1.0000
vn -0.9853 0.1707 0.0000
vn 0.9856 0.1689 0.0000
vn -0.0000 0.1713 -0.9852
g folder_Cube.009_folder
usemtl folder
s off
f 38/1/1 23/2/1 4/3/1 30/4/1
f 36/5/2 14/6/2 8/7/2 31/8/2
f 33/9/3 12/10/3 6/11/3 32/12/3
f 35/13/4 16/14/4 2/15/4 29/16/4
f 18/17/5 11/18/5 5/19/5 15/20/5
f 17/21/6 10/22/6 2/15/6 16/14/6
f 27/23/5 24/24/5 11/18/5 18/17/5
f 29/25/1 2/26/1 10/27/1 34/28/1
f 25/29/5 27/23/5 18/17/5 9/30/5
f 12/31/7 17/32/7 21/33/7 19/34/7
f 9/30/5 18/17/5 15/20/5 1/35/5
f 32/36/4 6/37/4 16/14/4 35/13/4
f 30/4/2 4/3/2 14/6/2 36/5/2
f 19/34/6 21/33/6 22/38/6 20/39/6
f 16/14/4 6/37/4 20/39/4 22/38/4
f 6/37/8 12/40/8 19/34/8 20/39/8
f 17/41/9 16/14/9 22/38/9 21/33/9
f 8/7/6 14/6/6 28/42/6 26/43/6
f 3/44/5 13/45/5 27/23/5 25/29/5
f 31/8/3 8/7/3 26/46/3 37/47/3
f 13/45/5 7/48/5 24/24/5 27/23/5
f 14/6/6 4/3/6 23/49/6 28/42/6
f 9/30/1 34/28/1 38/50/1 25/29/1
f 7/48/3 31/8/3 37/51/3 24/24/3
f 3/44/7 30/4/7 36/5/7 13/45/7
f 5/19/4 32/36/4 35/13/4 15/20/4
f 1/52/1 29/25/1 34/28/1 9/30/1
f 24/24/3 37/51/3 33/9/3 11/18/3
f 15/20/4 35/13/4 29/16/4 1/35/4
f 11/18/3 33/9/3 32/12/3 5/53/3
f 13/45/7 36/5/7 31/8/7 7/48/7
f 25/29/1 38/50/1 30/4/1 3/44/1
f 12/54/7 33/55/7 39/56/7 17/57/7
f 40/58/10 28/59/10 23/60/10 38/61/10
f 39/56/6 33/55/6 37/62/6 40/58/6
f 34/63/6 39/56/6 40/58/6 38/61/6
f 37/62/10 26/64/10 28/59/10 40/58/10
f 17/57/7 39/56/7 34/63/7 10/65/7
